<svg xmlns="http://www.w3.org/2000/svg" viewBox="0 0 512 512"><path fill="#fcfcfc" stroke="#fcfcfc" d="M226.5 1.165C125.77 12.535 38.337 86.036 10.138 183.051c-44.415 152.797 57.399 307.915 214.903 327.414C357.598 526.876 480.944 437.562 507.415 306c1.383-6.875 2.82-16.212 3.194-20.75.373-4.538 1.064-8.25 1.535-8.25.471 0 .856-9.927.856-22.059 0-12.143-.389-21.819-.864-21.525-.476.294-1.171-2.942-1.546-7.191-7.207-81.775-65.076-163.517-142.09-200.709-43.182-20.854-94.708-29.69-142-24.351m15.347 74.937c-34.287 2.641-67.802 15.529-96.021 36.923-9.208 6.982-13.771 8.63-16.455 5.946-.704-.704-2.665.609-6.228 4.172-3.563 3.563-4.876 5.524-4.172 6.228 2.714 2.714 1.034 7.227-6.314 16.954-60.708 80.375-44.96 194.363 35.083 253.933 119.134 88.662 288.157 4.41 288.399-143.758.142-86.749-59.52-159.986-144.592-177.49-8.158-1.679-34.404-4.342-38.047-3.86-.55.072-5.794.501-11.653.952M.428 256c0 12.375.143 17.438.319 11.25.175-6.187.175-16.312 0-22.5-.176-6.187-.319-1.125-.319 11.25" fill-rule="evenodd"/><path fill="#f9f9f9" stroke="#f9f9f9" d="M234.5.577c-1.65.223-7.05.905-12 1.513C116.219 15.157 25.654 99.289 5.151 204 .969 225.361.536 230.232.536 256s.433 30.639 4.615 52C32.072 445.488 171.242 536.071 310 506.42c105.814-22.612 189.072-113.734 200.025-218.92.63-6.05 1.557-11.781 2.06-12.736 1.116-2.119 1.236-39.08.124-38.393-.434.268-1.34-4.687-2.011-11.013-8.668-81.629-60.938-157.325-135.647-196.44-25.722-13.467-50.43-21.482-81.95-26.583C283.971.938 241.346-.352 234.5.577m3 75.599c-33.042 3.33-66.156 16.761-93.588 37.96-7.633 5.898-10.3 6.797-14.11 4.758-3.111-1.665-12.573 7.797-10.908 10.908 2.072 3.872 1.186 6.771-4.062 13.284-67.531 83.815-45.474 210.587 46.415 266.764 106.075 64.85 244.027 6.41 271.11-114.85C459.092 175.298 359.848 63.847 237.5 76.176M.419 256c0 10.725.147 15.113.327 9.75.179-5.363.179-14.137 0-19.5-.18-5.363-.327-.975-.327 9.75" fill-rule="evenodd"/><path fill="#643cb3" stroke="#643cb3" d="M232.678 1.048C147.276 9.969 75.634 56.292 33.245 130-6.217 198.619-10.55 287.523 22.036 360c54.187 120.524 190.406 180.379 315.432 138.601 90.828-30.35 157.64-110.144 171.584-204.926 1.067-7.246 1.941-15.286 1.943-17.866.003-2.58.455-4.969 1.005-5.309.595-.368 1-6.697 1-15.618 0-9.745-.35-14.784-1-14.382-.614.379-1.002-1.241-1.005-4.191-.007-7.606-3.614-30.139-6.886-43.022-25.47-100.28-108.003-174.92-210.541-190.406-15.122-2.284-47.301-3.253-60.89-1.833m2.997 75.008c-32.157 3.737-62.588 16.007-89.342 36.023-10.665 7.979-12.75 8.839-16.531 6.815-3.111-1.665-12.573 7.797-10.908 10.908 2.024 3.781 1.164 5.866-6.815 16.531-83.792 112.001-17.077 271.126 121.222 289.131C340.619 449.435 437 364.52 437 256c0-107.335-95.054-192.295-201.325-179.944M.402 256c0 8.525.154 12.012.341 7.75.188-4.262.188-11.238 0-15.5-.187-4.262-.341-.775-.341 7.75" fill-rule="evenodd"/><path fill="#050506" stroke="#050506" d="M236.253 1.028C122.856 9.885 27.939 93.661 5.549 204.651-7.965 271.642 5.41 340.69 42.813 397.025c88.373 133.106 275.026 153.802 390.251 43.272 45.044-43.208 74.272-104.991 77.607-164.047.349-6.187 1.016-11.25 1.482-11.25.466 0 .84-4.613.832-10.25-.009-5.811-.374-9.684-.844-8.943-.484.763-1.094-3.396-1.467-10-2.27-40.207-17.599-84.853-41.487-120.832C417.766 37.525 328.437-6.173 236.253 1.028m-1.57 15.033c-93.514 8.296-175.184 71.954-206.01 160.575-17.812 51.206-17.812 107.522 0 158.728C69.16 451.76 193.436 519.338 312.864 489.901 421.375 463.154 496.404 367.538 496.404 256c0-141.43-121.063-252.417-261.721-239.939M233.5 61.165c-34.302 3.876-70.231 18.692-98.243 40.512-10.529 8.201-11.948 12.711-5.246 16.67 3.865 2.283 5.933 1.616 13.489-4.352 118.46-93.57 293.289-9.053 293.482 141.877.169 133.049-138.799 220.779-258.982 163.493C73.262 369.441 41.99 234.658 113.995 143.5c5.831-7.383 6.562-9.523 4.567-13.379-3.581-6.927-8.702-5.369-16.885 5.136C24.153 234.779 58.715 379.221 173 433.331c113.064 53.532 247.051-12.604 274.367-135.428C476.382 167.443 366.768 46.109 233.5 61.165M.37 256c0 5.775.165 8.137.367 5.25.202-2.887.202-7.613 0-10.5-.202-2.887-.367-.525-.367 5.25" fill-rule="evenodd"/></svg>